[img]http://i.imgur.com/Qdtij.jpg[/img]

[code]

Taken.2.2012.UNRATED.EXTENDED.480p.BDRip.XViD.AC3-26k

 
http://www.imdb.com/title/tt1397280/


Plot:

In Istanbul, retired CIA operative Bryan Mills and his wife are taken hostage by the father of a kidnapper
 Mills killed while rescuing his daughter.

Sources - VIDEO: Taken 2 BD25 2012 1080p 2-In-1 BluRay AVC DTS-HD MA 5 1-iPlanet ..... thanks .... :P
          AUDIO: Taken 2 BD25 2012 1080p 2-In-1 BluRay AVC DTS-HD MA 5 1-iPlanet ..... thanks .... :P
          SUBS : ENG SUBS IN TORRENT FILES.

Format                                   : AVI
Format/Info                              : Audio Video Interleave
File size                                : 1.73 GiB
Duration                                 : 1h 38mn
Overall bit rate                         : 2 520 Kbps

Video
ID                                       : 0
Format                                   : MPEG-4 Visual
Format profile                           : Advanced Simple@L5
Format settings, BVOP                    : 2
Format settings, QPel                    : No
Format settings, GMC                     : No warppoints
Format settings, Matrix                  : Default (H.263)
Codec ID                                 : XVID
Codec ID/Hint                            : XviD
Duration                                 : 1h 38mn
Bit rate                                 : 2 000 Kbps
Width                                    : 720 pixels
Height                                   : 304 pixels
Display aspect ratio                     : 2.35:1
Frame rate                               : 23.976 fps
Color space                              : YUV
Chroma subsampling                       : 4:2:0
Bit depth                                : 8 bits
Scan type                                : Progressive
Compression mode                         : Lossy
Bits/(Pixel*Frame)                       : 0.381
Stream size                              : 1.37 GiB (79%)
Writing library                          : XviD 1.2.1 (UTC 2008-12-04)

Audio
ID                                       : 1
Format                                   : AC-3
Format/Info                              : Audio Coding 3
Mode extension                           : CM (complete main)
Format settings, Endianness              : Big
Codec ID                                 : 2000
Duration                                 : 1h 38mn
Bit rate mode                            : Constant
Bit rate                                 : 512 Kbps
Channel(s)                               : 6 channels
Channel positions                        : Front: L C R, Side: L R, LFE
Sampling rate                            : 48.0 KHz
Bit depth                                : 16 bits
Compression mode                         : Lossy
Stream size                              : 360 MiB (20%)
Alignment                                : Aligned on interleaves
Interleave, duration                     : 64 ms (1.53 video frames)
Interleave, preload duration             : 192 ms
Title                                    : 512

Notes -

Took the BD made a script to make magic happen and this is the outcome.. enjoy

[/code]

Screens:

[img]http://i.imgur.com/FxMtv.png[/img]
[img]http://i.imgur.com/0dZpX.png[/img]
[img]http://i.imgur.com/KRKuJ.png[/img]
[img]http://i.imgur.com/RYTYn.png[/img]
[img]http://i.imgur.com/lQXy5.jpg[/img]
[img]http://imageshack.us/a/img856/2564/54094925.png[/img]
[img]http://imageshack.us/a/img716/4244/18378912.png[/img]
[img]http://imageshack.us/a/img818/911/12424713.png[/img]
[img]http://imageshack.us/a/img585/6350/77650961.png[/img]
[img]http://imageshack.us/a/img59/3821/37827560.png[/img]

Greetz:
XtremeEncode|CM8|RX|VISION|HDSCENE|xTriLL|ADTRG|CRYS|REMIXHD|HS|Tommiecook
BIDA|RX|REFILL|INSPiRAL|AXED|HOPE|Anonymous|GooN|NOIR|Blackjesus|Gabroo Punjab Deh
|UNiQUE|RESiSTANCE|TRiNiTY|LEGION

To all the people who have helped me, you know who you are

Anything to offer email us @: 26k@hushmail.me 